<svg width="30" height="30" viewBox="0 0 30 30" fill="none" xmlns="http://www.w3.org/2000/svg">
<path fill-rule="evenodd" clip-rule="evenodd" d="M10.9112 10.9112C11.9956 9.82673 13.4664 9.2175 15 9.2175C16.5336 9.2175 18.0044 9.82673 19.0888 10.9112C20.1733 11.9956 20.7825 13.4664 20.7825 15C20.7825 16.5336 20.1733 18.0044 19.0888 19.0888C18.0044 20.1733 16.5336 20.7825 15 20.7825C13.4664 20.7825 11.9956 20.1733 10.9112 19.0888C9.82673 18.0044 9.2175 16.5336 9.2175 15C9.2175 13.4664 9.82673 11.9956 10.9112 10.9112ZM13.5635 18.468C14.0189 18.6567 14.507 18.7538 15 18.7538C15.9956 18.7538 16.9503 18.3583 17.6543 17.6543C18.3583 16.9503 18.7537 15.9956 18.7537 15C18.7537 14.0044 18.3583 13.0497 17.6543 12.3457C16.9503 11.6417 15.9956 11.2463 15 11.2463C14.507 11.2463 14.0189 11.3433 13.5635 11.532C13.1081 11.7206 12.6943 11.9971 12.3457 12.3457C11.9971 12.6943 11.7206 13.1081 11.532 13.5635C11.3433 14.0189 11.2462 14.5071 11.2462 15C11.2462 15.493 11.3433 15.9811 11.532 16.4365C11.7206 16.8919 11.9971 17.3057 12.3457 17.6543C12.6943 18.0029 13.1081 18.2794 13.5635 18.468Z" fill="white"/>
<path d="M22.0644 10.079C22.3207 9.82269 22.4647 9.47502 22.4647 9.1125C22.4647 8.74999 22.3207 8.40232 22.0644 8.14598C21.8081 7.88964 21.4604 7.74563 21.0979 7.74563C20.7354 7.74563 20.3877 7.88964 20.1313 8.14598C19.875 8.40232 19.731 8.74999 19.731 9.1125C19.731 9.47502 19.875 9.82269 20.1313 10.079C20.3877 10.3354 20.7354 10.4794 21.0979 10.4794C21.4604 10.4794 21.8081 10.3354 22.0644 10.079Z" fill="white"/>
<path fill-rule="evenodd" clip-rule="evenodd" d="M10.362 3.8175C11.562 3.76275 11.9445 3.75 15 3.75C18.0563 3.75 18.438 3.7635 19.6373 3.8175C20.835 3.87225 21.654 4.0635 22.3695 4.34025C23.1199 4.62289 23.7997 5.06567 24.3615 5.63775C24.9338 6.19974 25.3766 6.8798 25.659 7.6305C25.9373 8.346 26.1278 9.16425 26.1825 10.362C26.2373 11.562 26.25 11.9445 26.25 15C26.25 18.0555 26.2373 18.438 26.1825 19.638C26.1278 20.8358 25.9373 21.654 25.6597 22.3695C25.3771 23.1199 24.9343 23.7997 24.3623 24.3615C23.7998 24.9345 23.1195 25.377 22.3695 25.659C21.654 25.9373 20.8358 26.1278 19.638 26.1825C18.438 26.2373 18.0555 26.25 15 26.25C11.9445 26.25 11.562 26.2373 10.362 26.1825C9.16425 26.1278 8.346 25.9373 7.6305 25.6597C6.88013 25.3771 6.20037 24.9343 5.6385 24.3623C5.0655 23.7998 4.623 23.1195 4.341 22.3695C4.06275 21.654 3.87225 20.8358 3.8175 19.638C3.76275 18.438 3.75 18.0563 3.75 15C3.75 11.9438 3.7635 11.562 3.8175 10.3628C3.87225 9.165 4.0635 8.346 4.34025 7.6305C4.62289 6.88012 5.06567 6.20035 5.63775 5.6385C6.20025 5.0655 6.8805 4.623 7.6305 4.341C8.346 4.06275 9.16425 3.87225 10.362 3.8175ZM19.5465 5.8425C18.36 5.7885 18.0038 5.77725 15 5.77725C11.9963 5.77725 11.64 5.7885 10.4535 5.8425C9.357 5.89275 8.7615 6.07575 8.36475 6.23025C7.87606 6.41023 7.43396 6.69753 7.071 7.071C6.678 7.46475 6.4335 7.83975 6.23025 8.36475C6.075 8.7615 5.89275 9.357 5.8425 10.4535C5.7885 11.64 5.77725 11.9963 5.77725 15C5.77725 18.0038 5.7885 18.36 5.8425 19.5465C5.89275 20.643 6.07575 21.2385 6.23025 21.6353C6.41035 22.1239 6.69763 22.566 7.071 22.929C7.434 23.3024 7.87609 23.5897 8.36475 23.7698C8.7615 23.925 9.357 24.1073 10.4535 24.1575C11.64 24.2115 11.9955 24.2228 15 24.2228C18.0045 24.2228 18.36 24.2115 19.5465 24.1575C20.643 24.1073 21.2385 23.9243 21.6353 23.7698C22.124 23.5898 22.5661 23.3025 22.929 22.929C23.3024 22.566 23.5897 22.1239 23.7698 21.6353C23.925 21.2385 24.1073 20.643 24.1575 19.5465C24.2115 18.36 24.2228 18.0038 24.2228 15C24.2228 11.9963 24.2115 11.64 24.1575 10.4535C24.1073 9.357 23.9243 8.7615 23.7698 8.36475C23.5665 7.83975 23.3228 7.46475 22.929 7.071C22.5353 6.678 22.1603 6.4335 21.6353 6.23025C21.2385 6.075 20.643 5.89275 19.5465 5.8425Z" fill="white"/>
</svg>
