<svg width="149" height="41" viewBox="0 0 149 41" fill="none" xmlns="http://www.w3.org/2000/svg">
<path d="M0 40.8H40V0.8H0V40.8ZM67.5675 17.2756C67.4538 16.1297 66.9661 15.2396 66.1044 14.6051C65.2427 13.9706 64.0732 13.6534 62.5959 13.6534C61.5921 13.6534 60.7446 13.7955 60.0533 14.0795C59.362 14.3542 58.8317 14.7377 58.4624 15.2301C58.1025 15.7225 57.9226 16.2812 57.9226 16.9062C57.9036 17.4271 58.0125 17.8816 58.2493 18.2699C58.4955 18.6581 58.8317 18.9943 59.2578 19.2784C59.6839 19.553 60.1764 19.7945 60.7351 20.0028C61.2938 20.2017 61.8904 20.3722 62.5249 20.5142L65.1385 21.1392C66.4074 21.4233 67.5722 21.8021 68.6328 22.2756C69.6934 22.7491 70.612 23.3314 71.3885 24.0227C72.165 24.714 72.7663 25.5284 73.1925 26.4659C73.6281 27.4034 73.8506 28.4782 73.8601 29.6903C73.8506 31.4706 73.3961 33.0142 72.4964 34.321C71.6063 35.6184 70.3184 36.6269 68.6328 37.3466C66.9567 38.0568 64.9349 38.4119 62.5675 38.4119C60.219 38.4119 58.1735 38.0521 56.4311 37.3324C54.6982 36.6127 53.344 35.5473 52.3686 34.1364C51.4027 32.7159 50.8961 30.9593 50.8487 28.8665H56.8004C56.8667 29.8419 57.1461 30.6562 57.6385 31.3097C58.1404 31.9536 58.808 32.4413 59.6413 32.7727C60.4841 33.0947 61.4358 33.2557 62.4964 33.2557C63.5381 33.2557 64.4425 33.1042 65.2095 32.8011C65.986 32.4981 66.5874 32.0767 67.0135 31.5369C67.4396 30.9972 67.6527 30.3769 67.6527 29.6761C67.6527 29.0227 67.4586 28.4735 67.0703 28.0284C66.6915 27.5833 66.1328 27.2045 65.3942 26.892C64.665 26.5795 63.7701 26.2955 62.7095 26.0398L59.5419 25.2443C57.0893 24.6477 55.1527 23.715 53.7322 22.446C52.3118 21.1771 51.6063 19.4678 51.6158 17.3182C51.6063 15.5568 52.075 14.018 53.022 12.7017C53.9785 11.3854 55.29 10.358 56.9567 9.61932C58.6233 8.88068 60.5173 8.51136 62.6385 8.51136C64.7976 8.51136 66.6821 8.88068 68.2919 9.61932C69.9112 10.358 71.1707 11.3854 72.0703 12.7017C72.9699 14.018 73.4339 15.5426 73.4624 17.2756H67.5675ZM84.1477 8.90909V38H77.9972V8.90909H84.1477ZM89.2081 8.90909H96.7933L104.805 28.4545H105.146L113.157 8.90909H120.742V38H114.776V19.0653H114.535L107.006 37.858H102.944L95.4155 18.9943H95.174V38H89.2081V8.90909ZM125.81 38V8.90909H137.457C139.598 8.90909 141.383 9.22633 142.812 9.8608C144.242 10.4953 145.317 11.3759 146.037 12.5028C146.757 13.6203 147.116 14.9081 147.116 16.3665C147.116 17.5028 146.889 18.5019 146.435 19.3636C145.98 20.2159 145.355 20.9167 144.56 21.4659C143.774 22.0057 142.874 22.3892 141.861 22.6165V22.9006C142.969 22.9479 144.006 23.2604 144.972 23.8381C145.947 24.4157 146.738 25.2254 147.344 26.267C147.95 27.2992 148.253 28.5303 148.253 29.9602C148.253 31.5038 147.869 32.8816 147.102 34.0938C146.345 35.2964 145.223 36.2481 143.736 36.9489C142.249 37.6496 140.417 38 138.239 38H125.81ZM131.96 32.9716H136.974C138.688 32.9716 139.938 32.6449 140.724 31.9915C141.51 31.3286 141.903 30.4479 141.903 29.3494C141.903 28.5445 141.709 27.8343 141.321 27.2188C140.933 26.6032 140.379 26.1203 139.659 25.7699C138.949 25.4195 138.101 25.2443 137.116 25.2443H131.96V32.9716ZM131.96 21.0824H136.52C137.363 21.0824 138.111 20.9356 138.764 20.642C139.427 20.339 139.948 19.9129 140.327 19.3636C140.715 18.8144 140.909 18.1562 140.909 17.3892C140.909 16.3381 140.535 15.4905 139.787 14.8466C139.048 14.2027 137.997 13.8807 136.634 13.8807H131.96V21.0824Z" fill="white"/>
</svg>
